<?xml version="1.0" standalone="no"?>
<!DOCTYPE svg PUBLIC "-//W3C//DTD SVG 1.1//EN" "http://www.w3.org/Graphics/SVG/1.1/DTD/svg11.dtd" >
<svg>
<metadata>
Created by FontForge 20120731 at Sat Aug 26 18:59:51 2017
 By convertio
</metadata>
<defs>
<font id="ConsolidationForTitles-Rg" horiz-adv-x="638" >
  <font-face 
    font-family="Consolidation For Titles"
    font-weight="400"
    font-stretch="normal"
    units-per-em="1000"
    panose-1="2 0 5 3 0 0 0 0 0 0"
    ascent="800"
    descent="-200"
    x-height="681"
    cap-height="684"
    bbox="33 -200 605 692"
    underline-thickness="50"
    underline-position="-100"
    unicode-range="U+000D-00A0"
  />
<missing-glyph horiz-adv-x="364" 
d="M33 0v666h265v-666h-265zM66 33h199v600h-199v-600z" />
    <glyph glyph-name=".notdef" horiz-adv-x="364" 
d="M33 0v666h265v-666h-265zM66 33h199v600h-199v-600z" />
    <glyph glyph-name=".null" horiz-adv-x="250" 
 />
    <glyph glyph-name=".null" horiz-adv-x="250" 
 />
    <glyph glyph-name="nonmarkingreturn" horiz-adv-x="333" 
 />
    <glyph glyph-name="CR" unicode="&#xd;" horiz-adv-x="250" 
 />
    <glyph glyph-name="space" unicode=" " horiz-adv-x="250" 
 />
    <glyph glyph-name="comma" unicode="," horiz-adv-x="201" 
d="M71 -67l-1 1q0 2 37 2h41q-6 -11 -20 -52q-15 -49 -37 -73q-11 -11 -24 -11h-14l13 10q29 21 49 86l4 12l-22 11q-5 3 -11 6t-10 5.5t-5 2.5z" />
    <glyph glyph-name="period" unicode="." horiz-adv-x="157" 
d="M50 -67q0 17 5 21.5t23 4.5q17 0 23 -5t6 -20t-6 -20.5t-23 -5.5t-22.5 4.5t-5.5 20.5z" />
    <glyph glyph-name="A" unicode="A" horiz-adv-x="630" 
d="M377 661q-27 7 -62 7q-44 0 -77 -11q-50 -16 -91.5 -55.5t-60.5 -88.5q-11 -29 -13.5 -49.5t-3.5 -93.5l-1 -93h495v85q0 84 -6 110q-14 69 -62.5 120t-117.5 69zM68 -84h-17q1 91 1 273.5t1 273.5l7 23q19 67 64 115.5t108 70.5q42 13 79 13h14q88 -4 155.5 -58
t91.5 -141q6 -19 6 -116q0 -23 1 -89v-91l1 -274h-17q-1 58 -1 173t-1 173h-491q0 -58 -1 -173.5t-1 -172.5z" />
    <glyph glyph-name="B" unicode="B" horiz-adv-x="629" 
d="M372 286q-27 6 -168 7l-140 2v-362l139 1q136 1 164 7q90 21 142 68t52 107q0 58 -51.5 104t-137.5 66zM347 668q-23 4 -156 4h-127v-361l140 1q105 1 126.5 2t43.5 6q133 33 175 118q13 26 13 55q0 36 -21 69q-56 86 -194 106zM50 -84v774l146 -2q142 -1 172 -7
q106 -24 160 -79q50 -52 50 -110q0 -70 -68 -126q-18 -14 -53 -31.5t-58 -24.5q-20 -6 -19 -8q3 -2 29 -9q78 -24 123.5 -72.5t45.5 -105.5q0 -46 -29 -85q-58 -80 -183 -105q-34 -7 -173 -8z" />
    <glyph glyph-name="C" unicode="C" 
d="M265 678q20 4 44 4h19q60 -1 115 -28q47 -22 91 -66q15 -15 32.5 -37.5t17.5 -26.5q0 -2 -2 -3.5t-4 -2.5h-3q-3 0 -15 16q-34 47 -83 81q-74 51 -157 51q-74 0 -139 -39q-37 -22 -69 -55.5t-39 -56.5q-4 -12 -4 -87q0 -12 0.5 -56t0.5 -77v-204l9 -17q13 -26 54.5 -62
t77.5 -53q30 -14 49.5 -17.5t61.5 -3.5q51 0 74 8q35 13 38 15q32 16 65.5 44.5t56.5 58.5q12 17 16 21q4 3 14 -7l-12 -17q-14 -20 -43 -49t-50 -42q-71 -47 -149 -50h-15q-115 0 -214 99q-41 41 -48 75q-3 17 -3 207q0 192 3 207q5 26 33 60q74 88 177 110z" />
    <glyph glyph-name="D" unicode="D" horiz-adv-x="626" 
d="M105 661q-7 1 -15 2t-13 2l-10 2v-733h6q31 0 149 24q279 56 329 162l9 19l1 154v76q0 81 -4 97q-13 58 -76 96.5t-188 65.5q-100 20 -188 33zM50 -84v768h7q31 0 180 -28q157 -29 234.5 -69t98.5 -103q5 -15 5 -80v-106l-1 -167l-10 -20q-47 -95 -257 -150
q-52 -14 -136.5 -29.5t-107.5 -15.5h-13z" />
    <glyph glyph-name="E" unicode="E" horiz-adv-x="637" 
d="M555 306v-17h-486v-100q0 -101 3 -110q7 -19 36 -49t61 -52q36 -25 67.5 -34.5t76.5 -11.5h25q21 0 44 6q106 28 177 125q13 18 15 18q1 0 7 -4q5 -4 -1 -13q-75 -107 -187 -141q-26 -8 -71 -8q-39 0 -60 4t-52 17q-40 16 -86 56t-61 71l-10 20l-1 208v103q0 92 3 113
t18 42q16 21 38 41q71 69 157 87q13 3 40 3h19q38 -1 66 -9q46 -14 85 -39q57 -38 100 -99q6 -8 6.5 -10.5t-3.5 -5.5q-6 -4 -7 -4t-14 18q-35 48 -86.5 83t-103.5 45q-20 4 -53 4q-43 0 -72 -9q-75 -24 -138 -91q-27 -29 -32 -42q-5 -16 -6 -112l-1 -103h487z" />
    <glyph glyph-name="F" unicode="F" 
d="M64 -86h-14v615l7 15q10 22 48.5 54.5t74.5 49.5q68 32 141 32q37 0 74 -9q57 -15 110 -53q18 -13 48.5 -42.5t30.5 -34.5q0 -4 -5 -7q-1 -1 -2 -1q-5 0 -34 30q-94 96 -210 100h-18q-69 0 -135 -33q-33 -16 -65 -44t-43 -48l-6 -12v-250l244 -2l244 -1l1 -6l1 -7h-245
l-245 -1q0 -58 -1 -173t-1 -172z" />
    <glyph glyph-name="G" unicode="G" horiz-adv-x="641" 
d="M276 682h6q6 1 11 1q4 0 14.5 -0.5t16.5 -0.5q65 -1 118 -28q82 -40 135 -116l12 -16q-15 -8 -20 0q-73 105 -181 137q-19 6 -69 6q-40 0 -58.5 -3.5t-47.5 -17.5q-65 -30 -112 -85q-3 -3 -8 -9q-18 -19 -21 -44t-3 -152v-54v-214l8 -18q14 -29 58 -66.5t83 -53.5
q51 -22 105 -22q126 0 209 115q22 31 25.5 41t4.5 50q0 7 0.5 19t0.5 17q0 6 -1 13v7l-2 10h-128q-126 0 -137 -4q-8 -3 -15 -12t-7 -16q0 -5 -8 -5q-9 0 -9 5q0 7 8 19.5t17 19.5l13 8h282l1 -67v-67l-17 -25q-37 -56 -72 -85q-73 -59 -165 -59q-102 0 -190 71
q-50 40 -71 80l-9 19l-1 209v101q0 106 2 122q4 15 15 32q11 16 36.5 42t45.5 40q61 43 125 56z" />
    <glyph glyph-name="H" unicode="H" horiz-adv-x="631" 
d="M566 676h14l1 -174v-98q0 -20 -0.5 -32.5t0 -23t-2 -16.5t-2 -10.5t-3.5 -7.5t-4.5 -3.5t-7 -3t-8.5 -3.5l-17 -8l18 -9q19 -9 23 -18q4 -7 4 -178v-169l-7 1l-8 1l-2 169q-1 126 -2 149t-5 25q-3 2 -25 12l-20 8h-198l-198 -1l-18 -8q-15 -6 -31 -16v-164
q0 -163 -2 -169q-1 -7 -8 -7h-7v344q13 13 30 22l17 9l-16 6q-15 6 -23 17l-8 9v349h7q7 0 8 -6q2 -8 2 -173q1 -167 5 -171q7 -7 28 -15l23 -10h387l20 9q25 11 34 17q0 58 1 173.5t1 173.5z" />
    <glyph glyph-name="I" unicode="I" horiz-adv-x="344" 
d="M68 678q5 6 104 6q97 0 103 -5q12 -12 15 -40l2 -18h-9q-6 0 -7.5 2t-2.5 15q-2 20 -6.5 24t-29.5 4h-15h-42v-730h42q36 0 42.5 3.5t8.5 25.5q7 16 10 17h9l-2 -17q-3 -29 -15 -41q-6 -5 -104 -5h-99q-17 27 -18 49q-1 9 0 10.5t7 2.5q4 1 5.5 0t2 -3.5t1.5 -9.5
q1 -4 3 -12.5t2 -9.5l3 -10h85v730h-43h-15q-24 0 -28 -3.5t-7 -25.5q-2 -15 -6 -15h-3q-5 1 -6 3t0 13q2 27 13 40z" />
    <glyph glyph-name="J" unicode="J" horiz-adv-x="465" 
d="M56 668q0 2 -1 8t-1 8h361l-1 -251q-1 -187 -2 -221.5t-5 -50.5q-21 -73 -60 -118.5t-112 -80.5q-38 -19 -86.5 -33.5t-74.5 -15.5q-18 3 -19 7q0 6 26 10q68 11 138.5 43.5t109.5 72.5q38 38 60 111l8 25v242l1 242q-57 0 -171 1t-171 1z" />
    <glyph glyph-name="K" unicode="K" horiz-adv-x="650" 
d="M66 -76h-15v383l-1 382h17v-367l46 2q125 5 249 53q88 34 168 101q46 39 51 57q3 9 3 83v71h8l8 -1v-77q0 -68 -4.5 -83.5t-29.5 -39.5q-131 -125 -330 -166q-26 -5 -26 -7q0 -1 6 -2q120 -24 198 -61t144 -103q31 -30 36.5 -44.5t5.5 -71.5v-24v-83h-8l-8 -1v78v14
q0 63 -4.5 77.5t-32.5 42.5q-163 158 -427 168l-53 2l-1 -192v-191z" />
    <glyph glyph-name="L" unicode="L" 
d="M50 681h14v-366q0 -366 2 -368t25 14q66 46 152 65q35 7 86 7q27 0 59 -4q125 -18 182 -88q14 -16 14 -19q0 -2 -5 -7q-6 -5 -18 12q-42 53 -128 76q-54 14 -107 14q-144 0 -255 -91q-19 -15 -20 -15t-1 385v385z" />
    <glyph glyph-name="M" unicode="M" horiz-adv-x="636" 
d="M66 -85h-15v382l-1 383q1 0 5 0.5t6.5 1t4.5 -0.5q1 -1 7 -33q29 -155 84 -239q32 -47 73 -75q42 -27 89 -27t89 27q72 46 120 177q28 76 38 141q6 33 10 33h1q3 -1 7 -1q2 0 2 -383v-383h-15l-1 334l-2 334l-7 -29q-39 -138 -111 -209q-31 -31 -73 -47q-19 -8 -57 -8
q-41 0 -59 7q-30 11 -62 37.5t-52 57.5q-48 74 -75 178l-1 2q-3 0 -4 -323z" />
    <glyph glyph-name="N" unicode="N" horiz-adv-x="637" 
d="M70 -86h-16l-2 209q-2 230 -2 385v175q14 2 16 2q5 0 17 -3q13 -3 22 -12q7 -7 48 -78q42 -73 145.5 -248t145.5 -247q88 -150 98 -158q6 -5 18 -7l10 -2v376l1 376q3 0 8 1t8 1v-767q-7 -2 -20 -2q-20 0 -34 11q-12 8 -75 115q-30 52 -155 264.5t-159 271.5
q-35 62 -47 78q-12 14 -27 14q-3 0 -3 -134q0 -23 0.5 -103.5t0.5 -140.5z" />
    <glyph glyph-name="O" unicode="O" 
d="M394 659q-25 8 -70 9h-24q-36 0 -69 -10q-132 -40 -157 -185q-4 -23 -4 -104v-76q1 -151 8 -174q22 -71 76 -119.5t127 -60.5q9 -2 32 -2q45 0 74 8q57 16 101.5 56t64.5 93q11 27 13.5 47.5t2.5 87.5v83q-1 133 -3.5 158t-21.5 62q-47 94 -150 127zM254 681q21 5 62 5
t61 -5q75 -16 129 -69.5t74 -129.5q5 -20 6 -42t1 -133q0 -149 -3 -165q-11 -64 -51.5 -116t-100.5 -81q-51 -24 -111 -24q-62 0 -111 22q-112 53 -148 171l-8 25l-1 148v60q0 120 11 158q41 143 190 176z" />
    <glyph glyph-name="P" unicode="P" horiz-adv-x="620" 
d="M351 665q-44 6 -181 6q-56 0 -62 -2q-26 -7 -36 -29q-5 -11 -5 -169v-157h126q99 0 130.5 2.5t65.5 12.5q74 22 118.5 66.5t44.5 96.5q0 7 -2 19q-10 56 -64 98t-135 56zM111 687q4 1 66 1h46q84 -1 114.5 -4t67.5 -15q107 -33 147 -114q15 -31 15 -63q0 -64 -56 -115.5
t-152 -72.5q-22 -5 -157 -6l-135 -1v-375q-2 0 -7.5 1t-8.5 1l-1 349v179q0 143 2.5 169.5t14.5 40.5q17 20 44 25z" />
    <glyph glyph-name="Q" unicode="Q" horiz-adv-x="625" 
d="M425 12q-30 9 -70 9q-55 0 -95 -15q-42 -16 -68 -36q-7 -5 -1 -9q16 -12 62 -26q19 -6 56 -6q38 0 61 5q58 13 95 44l12 11l-14 8q-17 9 -38 15zM349 668q-28 4 -42 4q-56 0 -106 -23t-81 -63q-41 -54 -49 -131q-1 -10 -1 -104v-69q2 -150 8 -171q13 -46 38 -82
q10 -13 30 -33t24 -20l20 12q38 26 92 41q27 8 72 8q61 0 113 -24l25 -12l8 10q37 42 53 105q6 22 6 98v76q-1 136 -5 170.5t-23 74.5q-25 52 -73.5 87t-108.5 46zM181 658q59 31 127 31q29 0 63 -8q73 -19 125 -71.5t71 -126.5q5 -19 6 -43.5t1 -149.5v-168l-8 -24
q-19 -57 -47 -89l-13 -17l20 -16q17 -14 31.5 -30.5t14.5 -21.5q0 -11 -12 -4l-6 6q-23 27 -50 46l-10 8l-21 -16q-71 -53 -155 -53q-3 0 -9 0.5t-9 0.5q-103 6 -175 82q-40 43 -58 99q-10 29 -12 75q-2 54 -2 168q0 123 5 149q24 119 123 173z" />
    <glyph glyph-name="R" unicode="R" horiz-adv-x="620" 
d="M348 668q-25 4 -134 4h-110l-11 -7q-14 -9 -19 -17l-7 -11q-1 -58 -1 -174.5t-1 -174.5q46 0 137.5 1t137.5 1l27 8q85 22 135 72q52 52 52 112q0 6 -2 20q-9 61 -64.5 106.5t-139.5 59.5zM66 -78q-2 0 -8 1t-8 1v356q0 357 5 367q13 25 34 35l15 7h108q108 0 133 -4
q93 -15 153.5 -65.5t69.5 -120.5q1 -6 1 -19q0 -70 -58 -125.5t-154 -76.5q-21 -5 -123 -6l-100 -2l34 -14q122 -47 224.5 -126.5t162.5 -176.5q10 -16 11.5 -20t-2.5 -7q-6 -4 -7 -4q-3 0 -16 22q-111 179 -344 282q-106 46 -126 46q-4 0 -4.5 -24.5t-0.5 -150.5v-175z" />
    <glyph glyph-name="S" unicode="S" horiz-adv-x="657" 
d="M283 679q20 3 47 3q46 0 70 -7q113 -30 191 -137q14 -20 14 -23t-3 -4q-6 -4 -7 -4t-14 18q-33 46 -84 85q-46 34 -97 49q-28 7 -68 7q-38 0 -70 -7q-104 -27 -156 -103l-11 -16l-5 -87q-3 -45 -3 -77q0 -4 0.5 -8.5t0.5 -7v-3.5q6 -28 27 -40q8 -5 51.5 -8t256.5 -15
q102 -5 119 -8q12 -3 25.5 -13t17.5 -20q5 -9 5 -33q0 -36 -5 -103l-4 -71l-13 -19q-19 -27 -49.5 -53t-60.5 -39q-62 -27 -137 -27q-28 0 -48 4q-88 17 -165 94q-17 18 -35.5 42t-18.5 28q0 2 2 3.5t4 2.5h3q4 0 21 -23q44 -58 105.5 -96t133.5 -38q153 0 229 107l13 19
l5 87q3 54 3 86v11q-3 20 -24 29q-18 9 -220 19.5t-214 15.5q-27 10 -40 43l-6 16q1 31 4.5 92.5t5.5 92.5l11 18q29 46 80 76.5t113 41.5z" />
    <glyph glyph-name="T" unicode="T" horiz-adv-x="611" 
d="M311 -51h-14q-1 120 -1 361t-1 362h-100q-74 0 -88.5 -1t-19.5 -5q-15 -11 -16 -41q0 -7 -0.5 -11t-1 -7t-2 -3.5t-2.5 -1t-5 -1t-6 -0.5v21q0 48 33 63q7 3 115 3h107h213l10 -8q21 -15 24 -57l2 -22h-18v19q0 15 -6 31q-4 9 -5.5 12t-12.5 6t-25.5 3h-50.5h-26h-101
q-1 -121 -1 -362t-1 -361z" />
    <glyph glyph-name="U" unicode="U" horiz-adv-x="623" 
d="M557 683q1 4 6 3t7 -5q3 -6 3 -257t-3 -275q-11 -99 -84.5 -166t-173.5 -67q-34 0 -54 5q-76 16 -131.5 71.5t-71.5 131.5q-5 24 -5 290t5 269q1 1 4 1q6 0 7 -41.5t1 -232.5q0 -265 3 -279q11 -61 52 -110t98 -72q39 -16 88 -16q57 0 104 22q103 49 136 162l6 22l1 270z
" />
    <glyph glyph-name="V" unicode="V" horiz-adv-x="621" 
d="M53 683q2 4 6 3q5 -1 6 -34q4 -219 68 -382q22 -55 31 -71q18 -37 77 -141.5t61 -103.5q3 1 65 104t79 135q69 131 95 279q14 78 14 157v57h6q10 0 10 -37q0 -27 -1 -46q-6 -218 -108 -415q-10 -20 -84 -144.5t-76 -124.5l-68 118q-86 148 -129.5 264.5t-52.5 268.5
q-2 34 -2 57q0 47 3 56z" />
    <glyph glyph-name="W" unicode="W" horiz-adv-x="626" 
d="M50 686h14v-40q0 -8 2 -370l2 -330q15 -15 26 -9q5 3 55.5 58.5t103 114t58.5 64.5q4 0 43 -44q126 -137 153.5 -165.5t33.5 -28.5q12 0 17 10q2 4 2 124q0 23 -0.5 106t-0.5 143l-1 367h18v-370v-110q0 -202 -2 -239.5t-12 -41.5q-2 -1 -3 -1q-13 -5 -19 -5
q-10 0 -27.5 17t-102.5 109q-95 103 -98 104q-1 1 -22 -21.5t-50.5 -55t-58.5 -65t-49 -55.5l-21 -23q-11 -11 -22 -11q-6 0 -12 3q-20 8 -24 37q-3 18 -3 374v354z" />
    <glyph glyph-name="X" unicode="X" horiz-adv-x="616" 
d="M71 -78h-18l2 45q1 43 6 60q8 28 26.5 50t103.5 109l107 109l-50 52q-116 117 -141.5 144.5t-32.5 40.5q-11 24 -14.5 41t-4.5 56q0 7 -0.5 19t-0.5 16v12l1 6q2 4 9 4h7v-45q0 -48 4 -65q7 -29 26.5 -53.5t103.5 -109.5l105 -106l102 104q105 107 112 118q15 21 19 39.5
t5 63.5l1 54h16v-46q0 -69 -17 -103q-6 -13 -26.5 -36t-91.5 -95l-109 -111l108 -109q70 -71 89.5 -93t27.5 -38q19 -38 19 -96v-37h-17v39q0 56 -17 89q-8 15 -114 124q-106 108 -107 108q-2 0 -108 -108q-86 -87 -103 -109t-24 -50q-4 -15 -4 -55v-38z" />
    <glyph glyph-name="Y" unicode="Y" horiz-adv-x="639" 
d="M335 -78h-17v421h-10q-33 0 -70 16q-42 17 -83 60q-72 75 -93 187q-8 42 -8 70q0 7 1 8q1 2 8 2q5 0 6.5 -4t2.5 -23q8 -104 59 -183.5t128 -106.5q24 -9 68 -9q22 0 30 2q85 18 144 100.5t66 192.5l2 30l8 1l9 1l-2 -30q-7 -121 -74.5 -210.5t-161.5 -102.5l-13 -2v-420
z" />
    <glyph glyph-name="Z" unicode="Z" horiz-adv-x="602" 
d="M63 669v17l219 1h99q124 0 128 -1q18 -4 29 -17.5t11 -32.5v-15l-238 -320q-217 -292 -232 -320q-7 -12 -7 -18q0 -3 6 -11q9 -11 23 -13q24 -3 222 -3h221v-14h-221h-101q-126 0 -130 1q-13 3 -25 17t-12 30q0 8 3 15q2 4 318 429q107 143 132.5 179.5t25.5 44.5
q0 18 -20 29q-3 2 -228 2h-223z" />
    <glyph glyph-name="a" unicode="a" horiz-adv-x="623" 
d="M344 663q-11 2 -34 2q-84 0 -150 -51t-88 -134q-6 -24 -7 -102q0 -12 -0.5 -32t-0.5 -28v-15v-11l1 -5l2 -10h488q4 18 4 54q0 5 -0.5 19t-0.5 22q-1 78 -7 101q-17 72 -68 121q-58 58 -139 69zM67 -84h-14l-1 270q-1 77 -1 175q0 80 2.5 102.5t11.5 47.5
q16 44 50.5 83.5t77.5 60.5q52 27 117 27q9 0 31 -2q79 -9 139 -60t85 -131q4 -15 5 -52.5t2 -243.5l1 -277h-15v96q-1 53 -1 169v23t-0.5 21t-0.5 16v11v5q-1 3 -245 3h-244v-344z" />
    <glyph glyph-name="b" unicode="b" horiz-adv-x="626" 
d="M354 287q-29 4 -158 4h-132q0 -60 1 -178t1 -178h132q135 0 157 5q89 18 144 62.5t59 102.5v10q0 52 -46 98q-60 58 -158 74zM357 662q-39 7 -217 7q-72 0 -74 -3q-1 -2 -1 -180l1 -176l112 -1h40q115 0 164 13q76 19 127 67q50 47 50 101q0 49 -41 93q-53 57 -161 79z
M166 684q24 0 54 0.5t37 0.5q35 0 71 -3q52 -4 104 -24q65 -25 104 -71.5t39 -97.5q0 -15 -3 -28q-11 -49 -54.5 -88t-110.5 -61l-33 -11l26 -8q119 -35 159 -116q16 -32 16 -62q0 -6 -2 -22q-8 -51 -52.5 -92.5t-112.5 -63.5q-41 -14 -72 -16.5t-146 -3.5l-140 -1v768h116z
" />
    <glyph glyph-name="c" unicode="c" horiz-adv-x="632" 
d="M283 678q16 2 28 2q40 0 70 -8q86 -21 156 -94q43 -45 43 -56q0 -4 -6.5 -7t-8.5 2q-15 27 -54 64q-55 52 -125 73q-25 8 -67 8q-37 0 -59 -5q-82 -23 -144 -85q-27 -27 -37 -45l-9 -15v-424l7 -13q6 -12 31 -39q94 -100 211 -100q77 0 143 44q53 33 92 86q11 14 14 16.5
t7 0.5q5 -3 5 -6q0 -4 -16.5 -24.5t-32.5 -36.5q-54 -54 -112 -77q-47 -19 -99 -19q-85 0 -161 50q-19 12 -46.5 37.5t-39.5 42.5q-14 20 -17.5 41t-3.5 114v102l1 205l9 18q8 17 33 43.5t50 45.5q66 48 138 59z" />
    <glyph glyph-name="d" unicode="d" horiz-adv-x="623" 
d="M144 651q-58 10 -71 10h-6v-728l14 2q406 55 466 185l7 17l1 158v73q0 72 -2.5 93t-11.5 38q-28 57 -131 95q-20 8 -63 19.5t-50 11.5h-1h-1q-7 0 -44 7q-57 12 -107 19zM50 299q0 382 1 382q6 0 82 -12t109 -18q35 -7 44 -7q4 0 48 -10q102 -26 157 -61t74 -87
q4 -13 5 -35t2 -139v-75q0 -82 -2 -98q-32 -151 -444 -214q-54 -9 -65 -9h-11v383z" />
    <glyph glyph-name="e" unicode="e" 
d="M558 314v-14h-489l1 -101v-102l8 -16q19 -38 74 -79.5t106 -54.5q28 -7 64 -7t64 7q52 14 98 49q47 38 77 77q10 13 13 15.5t7 0.5q6 -4 5 -8t-10 -16q-84 -110 -198 -136q-23 -5 -52 -5q-39 0 -71 8q-90 24 -159 99q-36 39 -41 72q-3 16 -3 204q0 187 3 204q5 33 43 74
q84 89 187 104q6 1 31 1h16q95 -3 181 -74q16 -13 39 -39t30 -38q6 -10 1 -12q-6 -3 -9 -0.5t-12 14.5q-21 30 -59.5 62t-73.5 48q-48 22 -109 22q-80 0 -148 -45q-25 -16 -54.5 -46t-38.5 -48l-9 -17v-201q82 0 244.5 -1t243.5 -1z" />
    <glyph glyph-name="f" unicode="f" horiz-adv-x="641" 
d="M69 -75h-16l-2 92q-1 35 -1 200v107l1 216l7 13q11 21 41 49t63 46q57 31 122 41q6 1 33 1h16q101 -5 187 -72q14 -11 40.5 -37.5t26.5 -29.5q0 -2 -6 -6q-1 -1 -4 -1q-5 0 -24 20q-72 78 -166 102q-29 8 -67 8q-125 0 -220 -93q-24 -24 -28.5 -40t-4.5 -91v-40v-124h488
v-17h-489l1 -172z" />
    <glyph glyph-name="g" unicode="g" horiz-adv-x="641" 
d="M281 689q14 2 39 2h11q107 -5 197 -87q14 -13 37.5 -41.5t23.5 -32.5q0 -1 -6 -5q-7 -3 -11 3q-2 3 -21 27q-67 84 -166 112q-28 7 -65 7q-36 0 -64 -7q-76 -20 -139 -83q-42 -40 -48 -70q-2 -14 -2 -122v-96l1 -205l8 -15q13 -26 50 -59.5t73 -52.5q53 -27 110 -30h13
q71 0 129 37.5t97 96.5l16 24v111h-267l-9 -6q-9 -5 -14 -19q-4 -12 -11 -12q-5 0 -5.5 2t0.5 10q4 25 27 37q10 5 64 5h89l141 -1q1 -22 1 -65t1 -64l-9 -15q-58 -95 -143 -135q-49 -22 -110 -22q-43 0 -69 8q-52 16 -95 45q-18 13 -46 40t-39 42q-14 21 -16 49.5t-2 202.5
v55q0 132 2.5 154.5t18.5 44.5q33 44 85 80q58 39 123 50z" />
    <glyph glyph-name="h" unicode="h" horiz-adv-x="633" 
d="M67 -69h-17v168v59v76t5 37t7.5 16t16.5 7q16 7 16 9q0 1 -14 8q-17 8 -22 15l-8 8v175l-1 175h17v-343q13 -12 34 -21l20 -9h394l21 10q3 1 10.5 4.5t8.5 4t5 6.5t4 10.5t1.5 18.5t1.5 29v43v75v172h7q6 0 8 -5q1 -3 1 -174v-62q0 -88 -3 -105.5t-19 -23.5q-3 -1 -5 -2
q-17 -8 -17 -9q0 -2 12 -7q14 -6 22 -14l8 -8v-343h-14v258v23q0 45 -4.5 54.5t-29.5 19.5l-21 8h-395q-32 -16 -49 -24v-169z" />
    <glyph glyph-name="i" unicode="i" horiz-adv-x="343" 
d="M68 681l8 8h189l8 -8q14 -14 14 -47q0 -7 -1.5 -9t-6.5 -1q-8 1 -10 19q-2 21 -7 25t-34 4h-8h-41v-733h86l4 10q4 10 4 23q0 9 1 11t8 2h9l-2 -19q-2 -24 -14 -37q-5 -5 -17.5 -6t-85.5 -1h-29q-56 0 -65.5 2t-16.5 15q-4 11 -6 27q-1 9 -0.5 13t1.5 5t5 1q8 0 9 -11
q2 -14 5 -22l3 -11q14 -1 42 -1t42 -1v733h-42l-41 -1l-4 -10q-3 -7 -5 -23q-2 -14 -9 -14t-7 14q0 29 14 43z" />
    <glyph glyph-name="j" unicode="j" horiz-adv-x="461" 
d="M54 672v17h178l179 -1v-503l-8 -27q-17 -58 -49 -101q-35 -46 -119 -89t-165 -53l-16 -2v9q0 6 2 7t13 3q68 9 142 43t114 74q48 48 67 136q4 19 4 251v235l-171 1h-171z" />
    <glyph glyph-name="k" unicode="k" horiz-adv-x="648" 
d="M64 -81q-2 1 -6.5 1t-6.5 1v383l-1 382h14l1 -104v-55q0 -94 -1 -122v-28q0 -46 4 -58l46 2q103 4 205 38t176 89q59 43 78 70l8 13v155h17v-77q0 -59 -1 -70t-6 -22q-8 -17 -40.5 -45.5t-72.5 -55.5q-102 -66 -236 -95q-31 -7 -31 -9q1 0 3 -1q187 -38 300 -127
q63 -51 77 -76q6 -11 6 -99v-88h-14l-2 86q-2 77 -5 89.5t-29 37.5q-112 107 -275 147q-75 18 -153 21l-51 2q-4 -20 -4 -103v-282z" />
    <glyph glyph-name="l" unicode="l" horiz-adv-x="639" 
d="M52 676q2 2 9 2h6v-368q0 -368 1 -368q4 0 24 15q76 53 167 68q33 5 51 5q3 0 13.5 -0.5t17.5 -0.5q143 -4 221 -82q24 -24 24 -29q0 -2 -5 -5h-2q-6 0 -28 22q-52 52 -136 70q-31 7 -93 7q-36 0 -58 -3q-112 -18 -192 -87q-16 -14 -19 -14t-3 475q0 291 2 293z" />
    <glyph glyph-name="m" unicode="m" horiz-adv-x="637" 
d="M67 -86h-17v764h8q6 0 7.5 -3.5t5.5 -25.5q35 -200 125 -292q56 -56 122 -56q63 0 116 50q94 89 132 302q4 21 5.5 24.5t7.5 3.5h8v-767h-17v336q0 326 -4 326q-3 0 -14.5 -33t-21.5 -66l-11 -33q-57 -118 -141 -149q-21 -8 -51 -9h-11q-61 0 -111 40q-80 63 -127 221
l-11 36v-669z" />
    <glyph glyph-name="n" unicode="n" horiz-adv-x="637" 
d="M570 681h17v-767q-11 -3 -20 -3q-24 0 -40 16q-10 10 -114 187q-35 60 -116 197t-131 223q-68 118 -76 124q-6 5 -24 7l-1 -376q-2 -378 -3 -379q-3 -3 -7 -1q-5 3 -5 387v385l20 -1q23 -2 34 -13.5t43 -68.5q41 -72 131 -224t129 -219q120 -203 133 -218q6 -6 19 -8
l11 -2v754z" />
    <glyph glyph-name="o" unicode="o" horiz-adv-x="636" 
d="M369 662q-16 4 -56 4q-33 0 -51 -3q-82 -13 -132 -69t-61 -143q-1 -8 -1 -98v-66q2 -140 9 -165q19 -73 71 -121.5t124 -62.5q19 -4 45 -4q87 0 150 46q35 27 54 54t34 72q8 24 10 46t2 89v72q-1 151 -7 171q-20 67 -72 115t-119 63zM182 653q60 29 121 29h19
q44 -1 68 -8q66 -21 112 -65q55 -54 75 -126q7 -26 8 -167v-59q0 -76 -2.5 -103.5t-11.5 -53.5q-16 -46 -28 -64q-54 -82 -155 -111q-23 -7 -69 -7q-45 0 -70 8q-71 22 -120 71.5t-69 119.5q-4 13 -6 176q-1 47 -1 109q0 77 13 116q31 92 116 135z" />
    <glyph glyph-name="p" unicode="p" horiz-adv-x="619" 
d="M314 666q-54 3 -115 3q-67 0 -85.5 -2.5t-29.5 -13.5q-13 -12 -15 -33.5t-2 -150.5v-158l137 1q138 1 157 6q139 34 180 123q8 18 8 49q0 32 -11 55q-24 50 -84 82t-140 39zM67 -81h-17v709l7 14q13 28 37 38q8 4 102 4q114 0 149 -5q137 -20 195 -105q27 -39 27 -83
q0 -58 -41 -102q-58 -64 -166 -88q-22 -5 -157 -6l-136 -1v-375z" />
    <glyph glyph-name="q" unicode="q" horiz-adv-x="625" 
d="M417 16q-32 8 -73 8q-10 0 -14 -1q-29 -4 -61 -13q-15 -5 -44 -20t-34 -20l-1 -1q-3 -4 3 -8l2 -1q20 -13 65 -25q16 -5 56 -5q55 0 103 22q16 7 36.5 21t20.5 17t-21 12t-38 14zM360 668q-24 4 -52 4q-29 0 -53 -4q-147 -32 -180 -182q-5 -24 -5 -173q0 -115 1.5 -145
t7.5 -56q18 -75 77 -124l14 -12l16 11q52 35 114 47q19 4 45 4h20q52 -1 103 -24q16 -8 20 -8.5t8 3.5q17 14 33.5 46t23.5 62q6 24 6 173q0 145 -4 169q-11 77 -65 135t-130 74zM249 684q17 4 53 4q48 0 70 -6q73 -20 123.5 -70.5t70.5 -122.5l8 -28v-167v-87
q0 -81 -6 -101q-17 -61 -56 -103l-8 -9l14 -10q14 -10 34.5 -32t20.5 -26t-5 -6q-6 -3 -23 17q-15 16 -35 32l-17 13l-17 -14q-49 -39 -114 -52q-17 -3 -45 -3q-39 0 -56 4q-72 15 -125.5 67t-73.5 125l-7 28l-2 160v81q0 82 6 110q16 77 65.5 128t124.5 68z" />
    <glyph glyph-name="r" unicode="r" horiz-adv-x="621" 
d="M341 668q-31 4 -130 4q-102 0 -112 -5q-19 -8 -28 -29q-5 -11 -5 -150q0 -136 2 -170l2 -32h112q116 0 139 3q120 14 189 87q44 48 44 102q0 14 -3 31q-8 41 -43 77q-64 67 -167 82zM69 -75h-16l-2 349q-1 104 -1 230q0 122 4 134q12 38 49 49q8 2 107 2q97 0 128 -4
q85 -13 143.5 -53.5t79.5 -100.5q9 -25 9 -51q0 -61 -51 -117q-48 -51 -120 -74q-53 -17 -161 -17q-82 0 -92 -2l-4 -2q0 -2 29 -13q257 -105 381 -297q16 -25 16 -28q0 -2 -3 -4q-6 -4 -8.5 -3t-9.5 12q-30 51 -74 99q-94 104 -240 175q-43 21 -94 40.5t-63 19.5h-7v-344z
" />
    <glyph glyph-name="s" unicode="s" horiz-adv-x="655" 
d="M277 682q24 4 52 4q88 0 167 -52q30 -20 68 -62t38 -54q0 -7 -6 -7t-17 17q-29 42 -74.5 78t-89.5 51q-36 13 -82 13q-78 0 -148 -38q-18 -10 -44.5 -34.5t-37.5 -41.5l-9 -12l-5 -86q-3 -52 -3 -86v-10q2 -15 12.5 -28t23.5 -18q1 0 102 -6t205.5 -13t113.5 -10
q35 -10 43 -36q3 -9 3 -23q0 -22 -4 -86l-5 -93l-10 -15q-83 -122 -244 -122h-17q-49 3 -88 19q-45 18 -88.5 54.5t-72.5 80.5q-8 12 -2 17q6 4 7 4t10 -14q25 -40 69 -76t85 -52q44 -17 84 -17q3 0 10.5 0.5t11.5 0.5q148 5 219 110l10 15l5 88q3 55 3 88v11q-3 19 -29 29
q-11 4 -308 21q-104 5 -115 9q-22 6 -36 26q-14 21 -14 53q0 24 3 78l6 92l12 18q13 19 38 42t46 36q46 27 102 37z" />
    <glyph glyph-name="t" unicode="t" horiz-adv-x="611" 
d="M72 604h-18l1 24q3 49 34 61q8 3 219 3q158 0 186 -1t35 -5q29 -17 29 -60q0 -16 -1 -19t-6 -3q-4 0 -5.5 3t-2.5 17v1q-3 31 -18 44q-5 4 -19.5 5t-88.5 1h-101v-361q0 -260 -0.5 -310t-4.5 -51q-1 0 -3 -1h-1q-3 0 -4.5 5.5t-2.5 31.5t-1 68v125v132v361h-102h-26
q-46 0 -62 -1.5t-21.5 -4.5t-10.5 -15q-5 -13 -5 -31v-19z" />
    <glyph glyph-name="u" unicode="u" horiz-adv-x="622" 
d="M557 685h14l1 -263v-118q0 -122 -3 -154t-14 -62q-23 -58 -67.5 -99.5t-104.5 -59.5q-27 -8 -72 -8q-46 0 -72 8q-68 21 -115.5 69.5t-66.5 115.5l-6 23l-1 271q0 273 1 275q2 4 14 2l2 -274l1 -274l8 -25q23 -75 85 -125t147 -50h14q53 3 95 23q96 47 130 154
q5 16 6 57.5t2 237.5z" />
    <glyph glyph-name="v" unicode="v" horiz-adv-x="624" 
d="M50 634v53q2 -1 8 -1t8 -1l1 -75q2 -75 7 -110q24 -168 93 -307q12 -25 70.5 -129.5t62.5 -108.5l1 -1q2 0 67 106q86 141 113 208q70 164 74 350l2 67l8 1l9 1l-2 -65q-2 -75 -6 -100q-26 -200 -124 -371q-134 -225 -139 -230q-1 -1 -12.5 18t-27.5 48q-7 13 -21 37
t-23.5 41t-14.5 26q-92 161 -126 298q-28 112 -28 245z" />
    <glyph glyph-name="w" unicode="w" horiz-adv-x="629" 
d="M561 689h15l1 -206q2 -228 2 -372q0 -165 -5 -174q-11 -18 -31 -18q-7 0 -13 3q-5 2 -112 117q-100 109 -107 109q-1 0 -2 -1t-14.5 -16t-39.5 -44t-49 -55q-100 -110 -109 -112q-3 -1 -10 -1q-13 0 -21 6q-8 7 -10 30q-2 38 -4 362l-2 372h18v-300q0 -294 2 -374l2 -73
q15 -9 21 -7q5 2 86 92q134 148 136 148t96 -103t110 -119q15 -16 24 -16q7 0 18 11q-1 123 -1 370t-1 371z" />
    <glyph glyph-name="x" unicode="x" horiz-adv-x="613" 
d="M562 -75h-15v33q0 38 -4 54q-7 32 -25 55.5t-105 111.5l-106 108l-105 -107q-97 -99 -113 -121q-20 -33 -20 -93v-40h-8l-8 -1v39q0 53 11 81.5t41 58.5q61 61 107 108l83 85l-8 9q-16 20 -106 110q-98 100 -109 120q-19 37 -19 104v49h8l8 -1v-49q0 -65 21 -102
q7 -12 113 -120l104 -106l107 108q42 43 57 57.5t35.5 40t23.5 29.5t9.5 26t6 29t0.5 38l2 50h14v-50v-40t-6 -31.5t-10 -27.5t-24.5 -32t-37 -41.5l-58.5 -58.5q-104 -104 -104 -111q0 -4 50.5 -55t105.5 -108t64 -72q20 -37 20 -96v-41z" />
    <glyph glyph-name="y" unicode="y" horiz-adv-x="640" 
d="M334 -82h-14l-1 211v211h-12q-33 0 -75 19q-74 35 -121.5 114.5t-54.5 181.5l-2 26h9q7 0 8 -1.5t1 -10.5q0 -39 13 -91q24 -92 82.5 -152t131.5 -69q7 -1 22 -1q73 0 135.5 54t92.5 143q20 56 20 109v19h18l-2 -29q-5 -84 -41 -155q-31 -62 -82 -104t-106 -51l-20 -3
q0 -70 -1 -210.5t-1 -210.5z" />
    <glyph glyph-name="z" unicode="z" horiz-adv-x="602" 
d="M544 -66q0 -3 -1 -8t-1 -8h-452l-12 8q-23 15 -23 42q0 9 18.5 35.5t107.5 146.5q127 169 127 172l223 302q3 4 3 11q0 16 -13 27l-9 7h-224q-225 0 -226 5q-2 4 0 8q1 4 224 4q224 0 231 -3q32 -13 32 -48v-14l-110 -149q-70 -95 -114 -155.5t-132 -177.5
q-80 -107 -100.5 -136.5t-20.5 -37.5q0 -20 21 -29q5 -2 229 -2h222z" />
    <glyph glyph-name="nbsp" unicode="&#xa0;" horiz-adv-x="250" 
 />
  </font>
</defs>
</svg>
